<svg width="43" height="43" viewBox="0 0 43 43" fill="none" xmlns="http://www.w3.org/2000/svg">
<g id="Network">
<g id="Vector">
<path fill-rule="evenodd" clip-rule="evenodd" d="M13.1732 37.586C14.1176 38.2 15.1814 38.5071 16.3646 38.5071C17.9256 38.5071 19.1986 38.0549 20.1838 37.1506C21.169 36.2463 21.9653 35.1335 22.5727 33.8123C22.7174 33.4975 22.8544 33.1784 22.9838 32.855C22.4499 32.9597 21.8981 33.0146 21.3335 33.0146C20.6758 33.0146 20.0355 32.9401 19.4205 32.7991C19.1997 33.2084 18.9591 33.5912 18.6988 33.9475C18.0815 34.7923 17.3038 35.2148 16.3655 35.2148C15.6001 35.2148 14.9574 34.9375 14.4375 34.383C13.9175 33.8285 13.6576 33.1815 13.6576 32.4422C13.6576 31.9474 13.7655 31.4091 13.9813 30.8271C14.1281 30.4314 14.2855 29.9974 14.4535 29.525C13.9776 28.8761 13.5914 28.1574 13.313 27.387C12.4776 27.2101 11.5884 26.9961 10.6454 26.745C9.47138 26.4323 8.88435 25.5779 8.88435 24.1818C8.88435 23.758 8.98618 23.3529 9.18984 22.9665C9.3935 22.5801 9.67353 22.2529 10.0299 21.9851C9.73162 21.5727 9.46362 21.0859 9.22592 20.5244C8.98823 19.963 8.80574 19.4379 8.67845 18.9493C7.68784 19.5154 6.91943 20.2577 6.37322 21.1761C5.82701 22.0945 5.5539 23.0811 5.5539 24.1359C5.5539 24.7767 5.64784 25.3854 5.83571 25.9621C6.02359 26.5388 6.29573 27.0848 6.65213 27.6C5.4966 27.6969 4.53808 28.1997 3.77658 29.1083C3.01508 30.0171 2.63433 31.0461 2.63433 32.1956C2.63433 33.5014 3.08564 34.6114 3.98825 35.5255C4.89088 36.4396 6.00657 36.8966 7.33531 36.8966C8.03981 36.8966 8.71914 36.7365 9.37328 36.4164C10.0274 36.0962 10.5612 35.6445 10.9746 35.0612C11.4959 36.1304 12.2288 36.972 13.1732 37.586ZM8.33902 33.1993C8.06902 33.4693 7.73445 33.6043 7.33531 33.6043C6.93619 33.6043 6.60162 33.4693 6.33159 33.1993C6.0616 32.9293 5.9266 32.5947 5.9266 32.1956C5.9266 31.7964 6.0616 31.4619 6.33159 31.1919C6.60162 30.9219 6.93619 30.7869 7.33531 30.7869C7.73445 30.7869 8.06902 30.9219 8.33902 31.1919C8.60905 31.4619 8.74406 31.7964 8.74406 32.1956C8.74406 32.5947 8.60905 32.9293 8.33902 33.1993Z" fill="url(#paint0_radial_5329_78246)"/>
<path fill-rule="evenodd" clip-rule="evenodd" d="M13.0414 22.4977C12.9557 22.3962 12.8716 22.2946 12.7889 22.193C12.0924 21.3371 11.5398 20.463 11.1311 19.5706C10.7224 18.6782 10.518 17.7464 10.518 16.7752C10.518 15.0871 11.0959 13.6651 12.2516 12.5094C13.4073 11.3537 14.8292 10.7758 16.5174 10.7758C16.607 10.7758 16.6885 10.7807 16.7618 10.7904C16.8352 10.8001 16.9166 10.8049 17.0063 10.8049C16.8801 10.5236 16.7855 10.2423 16.7224 9.961C16.6593 9.67972 16.6277 9.38436 16.6277 9.07493C16.6277 7.76908 17.0848 6.65912 17.9989 5.74505C18.913 4.83096 20.0229 4.37392 21.3288 4.37392C22.6346 4.37392 23.7445 4.83096 24.6586 5.74505C25.5727 6.65912 26.0298 7.76908 26.0298 9.07493C26.0298 9.38844 25.9982 9.68057 25.9351 9.95133C25.872 10.2221 25.7774 10.4969 25.6512 10.7758H26.1402C27.7133 10.7758 29.0504 11.2872 30.1516 12.3099C31.2527 13.3326 31.8929 14.5969 32.0723 16.1028C31.5792 16.0081 31.0246 15.9608 30.4083 15.9608C29.792 15.9608 29.2269 15.9893 28.7127 16.0463C28.5467 15.473 28.2373 14.9999 27.7846 14.6272C27.332 14.2545 26.7838 14.0681 26.1402 14.0681C25.2492 14.0681 24.5433 14.3534 24.0225 14.924C23.7123 15.2639 23.356 15.6614 22.9537 16.1165C22.4292 16.0156 21.8875 15.9628 21.3335 15.9628C20.7684 15.9628 20.2162 16.0178 19.6818 16.1227C19.2591 15.6417 18.8893 15.2324 18.5723 14.8949C18.0546 14.3437 17.3696 14.0681 16.5174 14.0681C15.7369 14.0681 15.0907 14.3242 14.5785 14.8364C14.0664 15.3485 13.8103 15.9948 13.8103 16.7752C13.8103 17.3851 13.9986 18.0201 14.3752 18.6803C14.4671 18.8415 14.5661 19.0036 14.6722 19.1668C13.9027 20.1287 13.3373 21.2608 13.0414 22.4977ZM22.3325 10.0786C22.0625 10.3486 21.7279 10.4836 21.3288 10.4836C20.9296 10.4836 20.595 10.3486 20.325 10.0786C20.055 9.80862 19.92 9.47405 19.92 9.07493C19.92 8.67579 20.055 8.34122 20.325 8.07122C20.595 7.80119 20.9296 7.66618 21.3288 7.66618C21.7279 7.66618 22.0625 7.80119 22.3325 8.07122C22.6025 8.34122 22.7375 8.67579 22.7375 9.07493C22.7375 9.47405 22.6025 9.80862 22.3325 10.0786Z" fill="url(#paint1_radial_5329_78246)"/>
<path fill-rule="evenodd" clip-rule="evenodd" d="M29.2888 21.4157C28.8465 20.2712 28.1642 19.2461 27.3038 18.402C28.3635 18.1802 29.3763 18.0693 30.3423 18.0693C32.1353 18.0693 33.7105 18.6003 35.0678 19.6624C36.425 20.7244 37.1037 22.2186 37.1037 24.145C37.1037 24.7836 37.0097 25.3903 36.8218 25.965C36.6339 26.5398 36.3618 27.0848 36.0054 27.6C37.1609 27.6908 38.121 28.1905 38.8855 29.0992C39.6501 30.0079 40.0324 31.0401 40.0324 32.1956C40.0324 33.5014 39.581 34.6114 38.6784 35.5255C37.7758 36.4396 36.6601 36.8966 35.3313 36.8966C34.6268 36.8966 33.946 36.735 33.2888 36.4118C32.6316 36.0886 32.0963 35.6354 31.6829 35.052C31.1555 36.1274 30.4217 36.972 29.4813 37.5861C28.5411 38.2 27.4655 38.5071 26.2547 38.5071C25.6679 38.5071 25.0877 38.4246 24.5142 38.2597C23.9407 38.0947 23.3902 37.8346 22.8628 37.4794C23.1672 37.0951 23.4716 36.6422 23.776 36.1207C24.0803 35.5992 24.3501 35.1165 24.5854 34.6727C24.8593 34.8692 25.1393 35.0101 25.4254 35.0957C25.7116 35.1811 25.9977 35.2239 26.2838 35.2239C27.0741 35.2239 27.7292 34.9436 28.2491 34.383C28.769 33.8224 29.029 33.1627 29.029 32.404C29.029 31.8898 28.9226 31.3467 28.7098 30.7744C28.5652 30.3855 28.4093 29.9561 28.242 29.4861C28.7098 28.8405 29.0893 28.1269 29.3629 27.3627C30.2202 27.1844 31.1209 26.9673 32.0648 26.7113C33.2292 26.3956 33.8114 25.5402 33.8114 24.145C33.8114 23.1572 33.4435 22.4463 32.7077 22.0124C31.9719 21.5786 31.1738 21.3616 30.3132 21.3616C29.9848 21.3616 29.6434 21.3797 29.2888 21.4157ZM36.3541 33.1993C36.0968 33.4693 35.7693 33.6043 35.3716 33.6043C34.974 33.6043 34.6331 33.4622 34.3489 33.178C34.0647 32.8939 33.9226 32.5536 33.9226 32.1574C33.9226 31.7583 34.0576 31.4237 34.3276 31.1537C34.5976 30.8837 34.9322 30.7487 35.3313 30.7487C35.7305 30.7487 36.0651 30.8908 36.3351 31.175C36.6051 31.4591 36.7401 31.7994 36.7401 32.1956C36.7401 32.5947 36.6114 32.9293 36.3541 33.1993Z" fill="url(#paint2_radial_5329_78246)"/>
<path d="M19.6206 26.2211L21.3335 30.0141L23.0465 26.2211L26.8394 24.5082L23.0465 22.7953L21.3335 19.0023L19.6206 22.7953L15.8277 24.5082L19.6206 26.2211Z" fill="url(#paint3_radial_5329_78246)"/>
</g>
</g>
<defs>
<radialGradient id="paint0_radial_5329_78246" cx="0" cy="0" r="1" gradientUnits="userSpaceOnUse" gradientTransform="translate(21.3333 4.37392) rotate(90) scale(34.1331 37.398)">
<stop stop-color="#E9BAFF"/>
<stop offset="1" stop-color="#8F77F1"/>
</radialGradient>
<radialGradient id="paint1_radial_5329_78246" cx="0" cy="0" r="1" gradientUnits="userSpaceOnUse" gradientTransform="translate(21.3333 4.37392) rotate(90) scale(34.1331 37.398)">
<stop stop-color="#E9BAFF"/>
<stop offset="1" stop-color="#8F77F1"/>
</radialGradient>
<radialGradient id="paint2_radial_5329_78246" cx="0" cy="0" r="1" gradientUnits="userSpaceOnUse" gradientTransform="translate(21.3333 4.37392) rotate(90) scale(34.1331 37.398)">
<stop stop-color="#E9BAFF"/>
<stop offset="1" stop-color="#8F77F1"/>
</radialGradient>
<radialGradient id="paint3_radial_5329_78246" cx="0" cy="0" r="1" gradientUnits="userSpaceOnUse" gradientTransform="translate(21.3333 4.37392) rotate(90) scale(34.1331 37.398)">
<stop stop-color="#E9BAFF"/>
<stop offset="1" stop-color="#8F77F1"/>
</radialGradient>
</defs>
</svg>
