<svg width="43" height="43" viewBox="0 0 43 43" fill="none" xmlns="http://www.w3.org/2000/svg">
<g id="Broom">
<path id="Vector" fill-rule="evenodd" clip-rule="evenodd" d="M30.9032 5.01333C31.0719 4.60057 31.3919 4.26779 31.7977 4.08296C32.2035 3.89812 32.6645 3.87517 33.0867 4.01879C33.5088 4.16242 33.8603 4.46178 34.0691 4.85574C34.278 5.24971 34.3287 5.70856 34.2107 6.13858L34.1442 6.33108L29.5767 17.5661L30.7264 17.8723C32.5639 18.3641 34.0934 19.8568 34.3839 21.8938C34.6324 23.6438 34.8652 26.3038 34.5449 29.0443C34.2264 31.7603 33.3374 34.7808 31.1377 36.9998C30.3292 37.8153 29.1689 37.9448 28.3849 37.9588C27.4907 37.9728 26.4599 37.8363 25.4012 37.6263C23.2732 37.2028 20.7199 36.4188 18.3067 35.5858L17.5822 35.3321L16.1594 34.8176L14.7944 34.3083L13.5099 33.8131L11.7984 33.1341C10.832 32.7474 9.8706 32.3484 8.91443 31.9371C8.63631 31.8166 8.39427 31.6259 8.21201 31.3837C8.02975 31.1415 7.91352 30.8561 7.87471 30.5555C7.83589 30.2548 7.87583 29.9493 7.9906 29.6688C8.10537 29.3882 8.29104 29.1423 8.52943 28.9551C10.9409 27.0651 13.2019 24.8916 15.1129 22.8843L16.0369 21.8973C16.1874 21.7363 16.3344 21.5753 16.4762 21.4178L17.3022 20.4956L17.6872 20.0546L18.7267 18.8383L19.3164 18.1278C19.9335 17.3696 20.7442 16.7925 21.6626 16.4576C22.581 16.1227 23.5729 16.0425 24.5332 16.2256L24.8814 16.3061L26.1712 16.6508L30.9032 5.01333ZM23.9749 19.6871C23.6202 19.5986 23.2476 19.6139 22.9013 19.7312C22.5551 19.8485 22.2499 20.0628 22.0219 20.3486L21.5967 20.8613L31.0432 23.3918L30.9609 22.7058C30.9469 22.5996 30.9324 22.4934 30.9172 22.3873C30.8542 21.9446 30.5409 21.5281 30.0247 21.3198L29.8217 21.2533L23.9749 19.6871ZM10.4054 13.9436L10.5174 14.1886C10.9946 15.1757 11.7462 16.0045 12.6822 16.5756L12.8572 16.6771C12.8754 16.6875 12.8905 16.7025 12.901 16.7207C12.9115 16.7388 12.917 16.7594 12.917 16.7803C12.917 16.8013 12.9115 16.8219 12.901 16.84C12.8905 16.8581 12.8754 16.8732 12.8572 16.8836L12.6822 16.9851C11.7463 17.5574 10.9954 18.3874 10.5192 19.3756L10.4072 19.6188C10.3975 19.6409 10.3815 19.6597 10.3613 19.6729C10.3411 19.6861 10.3175 19.6931 10.2934 19.6931C10.2693 19.6931 10.2457 19.6861 10.2255 19.6729C10.2053 19.6597 10.1894 19.6409 10.1797 19.6188L10.0677 19.3738C9.59047 18.3867 8.8389 17.5579 7.90293 16.9868L7.72793 16.8853C7.70975 16.8749 7.69464 16.8599 7.68413 16.8418C7.67362 16.8236 7.66809 16.803 7.66809 16.7821C7.66809 16.7611 7.67362 16.7405 7.68413 16.7224C7.69464 16.7043 7.70975 16.6893 7.72793 16.6788L7.90293 16.5773C8.83811 16.0048 9.58847 15.1748 10.0642 14.1868L10.1762 13.9436C10.1859 13.9215 10.2018 13.9027 10.222 13.8895C10.2422 13.8763 10.2658 13.8693 10.2899 13.8693C10.314 13.8693 10.3376 13.8763 10.3578 13.8895C10.378 13.9027 10.3957 13.9215 10.4054 13.9436ZM15.3614 5.44033C15.4314 5.28283 15.6519 5.28283 15.7219 5.44033L15.9004 5.82883C16.6605 7.40029 17.8575 8.71935 19.3479 9.62808L19.6227 9.79083C19.6522 9.80718 19.6768 9.83114 19.694 9.86022C19.7111 9.8893 19.7202 9.92245 19.7202 9.95621C19.7202 9.98997 19.7111 10.0231 19.694 10.0522C19.6768 10.0813 19.6522 10.1052 19.6227 10.1216L19.3462 10.2826C17.8555 11.1918 16.6585 12.5115 15.8987 14.0836L15.7237 14.4721C15.7083 14.5073 15.6829 14.5372 15.6507 14.5582C15.6186 14.5793 15.581 14.5905 15.5426 14.5905C15.5041 14.5905 15.4665 14.5793 15.4344 14.5582C15.4022 14.5372 15.3768 14.5073 15.3614 14.4721L15.1829 14.0836C14.4231 12.5115 13.2261 11.1918 11.7354 10.2826L11.4589 10.1216C11.4294 10.1052 11.4048 10.0813 11.3876 10.0522C11.3705 10.0231 11.3614 9.98997 11.3614 9.95621C11.3614 9.92245 11.3705 9.8893 11.3876 9.86022C11.4048 9.83114 11.4294 9.80718 11.4589 9.79083L11.7372 9.62808C13.2276 8.71935 14.4246 7.40029 15.1847 5.82883L15.3597 5.44033H15.3614Z" fill="url(#paint0_radial_5329_78254)"/>
</g>
<defs>
<radialGradient id="paint0_radial_5329_78254" cx="0" cy="0" r="1" gradientUnits="userSpaceOnUse" gradientTransform="translate(21.1845 3.94049) rotate(90) scale(34.0193 27.021)">
<stop stop-color="#FFECBA"/>
<stop offset="1" stop-color="#F19B77"/>
</radialGradient>
</defs>
</svg>
