<svg width="42" height="43" viewBox="0 0 42 43" fill="none" xmlns="http://www.w3.org/2000/svg">
<g id="NFT Pools">
<g id="Vector">
<path d="M9.91572 22.1552C7.82041 22.413 6.43718 23.2744 5.85196 23.7226C5.41998 24.0514 4.87506 24.1952 4.33706 24.1223C3.79906 24.0494 3.31205 23.7658 2.98319 23.3338C2.65432 22.9018 2.51052 22.3569 2.58343 21.8189C2.65634 21.2809 2.93999 20.7939 3.37196 20.465C4.3787 19.6997 6.42694 18.4618 9.4144 18.0914C12.4326 17.721 16.2405 18.2551 20.6951 20.7863C28.4461 25.1938 34.683 22.1224 36.3076 21.1607C36.7738 20.8951 37.3257 20.8232 37.8444 20.9605C38.363 21.0978 38.807 21.4333 39.0807 21.8948C39.3544 22.3563 39.4359 22.9068 39.3076 23.4278C39.1793 23.9488 38.8515 24.3985 38.3948 24.6802C36.191 25.9857 28.2681 29.7998 18.6714 24.3446C14.9146 22.2084 11.9844 21.8994 9.91572 22.1552ZM5.85196 31.9053C6.43922 31.4572 7.82041 30.5958 9.91572 30.3379C11.9824 30.0822 14.9146 30.3911 18.6735 32.5274C28.2702 37.9825 36.189 34.1684 38.3927 32.865C38.6301 32.7314 38.8384 32.5517 39.0054 32.3365C39.1724 32.1213 39.2948 31.8749 39.3653 31.6118C39.4359 31.3487 39.4532 31.0742 39.4162 30.8043C39.3793 30.5344 39.2888 30.2746 39.1501 30.0402C39.0114 29.8057 38.8273 29.6013 38.6086 29.4389C38.3899 29.2766 38.1409 29.1595 37.8764 29.0946C37.6118 29.0297 37.337 29.0183 37.0679 29.0611C36.7989 29.1038 36.5411 29.1998 36.3097 29.3435C34.683 30.3052 28.4461 33.3765 20.6951 28.969C16.2405 26.4379 12.4326 25.9038 9.4144 26.2762C6.42694 26.6445 4.38074 27.8825 3.37196 28.6498C2.95697 28.9844 2.68891 29.4677 2.62484 29.9968C2.56076 30.526 2.70572 31.0593 3.02887 31.4833C3.35202 31.9072 3.82785 32.1883 4.3551 32.2668C4.88235 32.3452 5.4194 32.2148 5.85196 31.9033V31.9053Z" fill="url(#paint0_radial_5329_78238)"/>
<path d="M4.184 17.5819V7.50182H9.23631L12.6765 13.7009V7.50182H16.4325V16.5482C14.1606 15.8027 12.1123 15.5821 10.3137 15.6874L7.93999 11.3741V16.0328C6.32882 16.4146 5.06968 17.0305 4.184 17.5819Z" fill="url(#paint1_radial_5329_78238)"/>
<path d="M21.9813 19.1354H22.1605V15.4459H26.681V12.5874H22.1605V10.5764H27.6616V7.50182H18.2716V17.2493C19.055 17.5891 19.8617 17.991 20.6908 18.4622C21.1259 18.7096 21.5563 18.9334 21.9813 19.1354Z" fill="url(#paint2_radial_5329_78238)"/>
<path d="M31.7418 10.3105V19.1354H35.747V10.3105H39.2205V7.50182H28.2849V10.3105H31.7418Z" fill="url(#paint3_radial_5329_78238)"/>
</g>
</g>
<defs>
<radialGradient id="paint0_radial_5329_78238" cx="0" cy="0" r="1" gradientUnits="userSpaceOnUse" gradientTransform="translate(21 8.244) rotate(90) scale(27.1352 36.8703)">
<stop stop-color="#FFBABA"/>
<stop offset="1" stop-color="#F17777"/>
</radialGradient>
<radialGradient id="paint1_radial_5329_78238" cx="0" cy="0" r="1" gradientUnits="userSpaceOnUse" gradientTransform="translate(21 8.244) rotate(90) scale(27.1352 36.8703)">
<stop stop-color="#FFBABA"/>
<stop offset="1" stop-color="#F17777"/>
</radialGradient>
<radialGradient id="paint2_radial_5329_78238" cx="0" cy="0" r="1" gradientUnits="userSpaceOnUse" gradientTransform="translate(21 8.244) rotate(90) scale(27.1352 36.8703)">
<stop stop-color="#FFBABA"/>
<stop offset="1" stop-color="#F17777"/>
</radialGradient>
<radialGradient id="paint3_radial_5329_78238" cx="0" cy="0" r="1" gradientUnits="userSpaceOnUse" gradientTransform="translate(21 8.244) rotate(90) scale(27.1352 36.8703)">
<stop stop-color="#FFBABA"/>
<stop offset="1" stop-color="#F17777"/>
</radialGradient>
</defs>
</svg>
