<?xml version="1.0" standalone="no"?>
<!DOCTYPE svg PUBLIC "-//W3C//DTD SVG 20010904//EN"
 "http://www.w3.org/TR/2001/REC-SVG-20010904/DTD/svg10.dtd">
<svg version="1.0" xmlns="http://www.w3.org/2000/svg"
 width="656.000000pt" height="656.000000pt" viewBox="0 0 656.000000 656.000000"
 preserveAspectRatio="xMidYMid meet">
<metadata>
Created by potrace 1.14, written by Peter Selinger 2001-2017
</metadata>
<g transform="translate(0.000000,656.000000) scale(0.100000,-0.100000)"
fill="#000000" stroke="none">
<path d="M3074 6526 c-50 -13 -119 -38 -153 -56 -108 -54 -1703 -980 -1771
-1028 -188 -132 -347 -349 -419 -570 -58 -180 -56 -111 -56 -1597 0 -1300 1
-1374 19 -1455 64 -291 235 -553 463 -708 69 -47 1673 -976 1764 -1022 209
-106 509 -106 720 0 91 46 1692 975 1764 1023 33 23 99 80 146 127 132 131
223 277 278 448 58 180 56 112 56 1592 0 1480 2 1412 -56 1592 -68 211 -207
408 -381 541 -68 52 -1648 976 -1802 1054 -165 83 -388 106 -572 59z m-702
-1526 c26 -129 55 -252 65 -273 29 -67 82 -102 227 -150 176 -59 176 -66 0
-127 -222 -77 -220 -74 -289 -409 -47 -225 -53 -246 -73 -249 -15 -2 -23 3
-27 20 -3 13 -26 124 -51 247 -25 124 -52 237 -59 252 -31 58 -92 97 -227 141
-112 37 -128 45 -126 63 2 16 29 29 136 66 137 48 185 78 218 141 7 14 34 127
59 250 25 122 47 233 50 246 4 17 12 22 27 20 20 -3 26 -24 70 -238z m1383
168 c21 -19 33 -50 64 -175 21 -83 48 -167 60 -186 16 -26 45 -48 110 -81 323
-167 560 -404 719 -721 88 -176 140 -354 161 -555 17 -158 -5 -174 -237 -168
-141 3 -144 3 -166 29 -18 20 -26 49 -35 117 -22 174 -87 350 -185 502 -69
106 -214 251 -328 327 -168 112 -311 161 -556 193 -96 13 -162 26 -178 36 -35
24 -54 65 -54 121 l0 48 268 267 c238 238 271 268 299 268 19 0 43 -9 58 -22z
m-412 -1412 c18 -8 116 -99 219 -202 277 -281 277 -268 -10 -556 -281 -281
-263 -281 -544 0 -287 288 -287 275 -10 556 103 103 201 194 217 202 39 17 88
17 128 0z m-1245 -501 c13 -16 23 -54 31 -114 33 -255 141 -478 326 -670 151
-157 330 -261 545 -318 82 -22 125 -26 315 -32 152 -4 227 -10 243 -19 55 -31
79 -122 48 -180 -8 -15 -138 -150 -288 -299 -239 -239 -278 -273 -305 -273
-58 0 -78 28 -128 188 -26 81 -58 161 -71 178 -16 22 -49 42 -101 64 -466 194
-797 541 -948 994 -55 164 -93 402 -74 455 18 48 31 51 215 51 171 0 173 0
192 -25z"/>
</g>
</svg>
