<svg width="26" height="32" viewBox="0 0 26 32" fill="none" xmlns="http://www.w3.org/2000/svg">
<path d="M0 9.97456V22.0319C0 24.0271 1.06922 25.8677 2.79611 26.86L10.7601 31.4475C12.0394 32.1842 13.6114 32.1842 14.8907 31.4475L22.8547 26.86C24.5816 25.8613 25.6508 24.0207 25.6508 22.0319V9.97456C25.6508 7.97933 24.5816 6.13658 22.8547 5.14648L14.8907 0.552502C13.6114 -0.184167 12.0394 -0.184167 10.7601 0.552502L2.79611 5.14004C1.06922 6.13873 0 7.97933 0 9.97456Z" fill="#DC2626"/>
<path d="M5.60711 10.1812L6.65218 10.5291C7.03709 10.6601 7.32524 10.9759 7.40051 11.3732L7.84133 13.5252C7.85423 13.581 7.90369 13.6176 7.96175 13.6176C8.01981 13.6176 8.06926 13.581 8.08217 13.5252L8.52299 11.3732C8.60471 10.9823 8.88856 10.6601 9.27777 10.5291L10.3228 10.1812C10.3723 10.1619 10.4046 10.1189 10.4046 10.0695C10.4046 10.0201 10.3723 9.97717 10.3228 9.95784L9.27777 9.60991C8.89286 9.4789 8.60471 9.16318 8.52299 8.76585L8.08217 6.61384C8.06926 6.558 8.01981 6.52148 7.96175 6.52148C7.90369 6.52148 7.85423 6.558 7.84133 6.61384L7.40051 8.76585C7.31879 9.15674 7.03494 9.4789 6.65218 9.60991L5.60711 9.95784C5.55765 9.97717 5.52539 10.0201 5.52539 10.0695C5.52539 10.1189 5.55765 10.1619 5.60711 10.1812Z" fill="#FFFCF5"/>
<path d="M11.0412 25.244L10.652 24.0284C10.5703 23.7771 10.3789 23.5752 10.1295 23.485C7.22865 22.4434 5.11054 19.7459 4.92561 16.5414C4.91056 16.2945 5.10839 16.084 5.35568 16.084H6.64805C6.87384 16.084 7.05877 16.2579 7.07597 16.4813C7.28025 19.4473 9.76177 21.7969 12.783 21.7969H13.8216C14.3958 21.7969 14.6839 22.4906 14.2775 22.8966L11.7552 25.4158C11.5272 25.6435 11.1401 25.549 11.0412 25.244Z" fill="#FFFCF5"/>
<path d="M20.2081 16.0824H18.9157C18.6899 16.0824 18.5028 15.9085 18.4878 15.683C18.2985 12.9725 16.2084 10.7411 13.4753 10.4103L12.5979 10.3051C12.0646 10.2406 11.8389 9.58987 12.2195 9.20973L14.544 6.88804C14.7805 6.65179 15.1827 6.76347 15.2644 7.08563L15.5891 8.36567C15.6514 8.61266 15.8213 8.82314 16.0536 8.93052C18.6533 10.1182 20.4661 12.6719 20.6381 15.625C20.6532 15.872 20.4553 16.0824 20.2081 16.0824Z" fill="#FFFCF5"/>
<path d="M12.2033 13.9566L10.6311 15.5269C10.3111 15.8464 10.3111 16.3645 10.6311 16.6841L12.2033 18.2544C12.5233 18.5739 13.042 18.5739 13.362 18.2544L14.9342 16.6841C15.2541 16.3645 15.2541 15.8464 14.9342 15.5269L13.362 13.9565C13.042 13.637 12.5233 13.637 12.2033 13.9566Z" fill="#FFFCF5"/>
</svg>
